<svg width="36" height="31" viewBox="0 0 36 31" fill="none" xmlns="http://www.w3.org/2000/svg">
<g clip-path="url(#clip0_13_15)">
<path d="M0 25.575L3.5697 19.375H9.48972C13.3741 19.375 16.6584 22.2505 17.1718 26.1008L17.825 31H10.075L8.95784 28.3933C8.22508 26.6836 6.54394 25.575 4.68381 25.575H0Z" fill="#C6E0AE"/>
<path d="M35.65 25.575L32.0802 19.375H26.1602C22.2759 19.375 18.9916 22.2505 18.4782 26.1008L17.825 31H25.575L26.6921 28.3933C27.4249 26.6836 29.106 25.575 30.9662 25.575H35.65Z" fill="#C6E0AE"/>
<path d="M3.5697 19.375L14.7249 0H17.825L17.5175 7.38114C17.2521 13.749 12.2028 18.8787 5.83992 19.2445L3.5697 19.375Z" fill="#C6E0AE"/>
<path d="M32.0802 19.375L20.925 0H17.825L18.1325 7.38114C18.3978 13.749 23.4472 18.8787 29.81 19.2445L32.0802 19.375Z" fill="#C6E0AE"/>
</g>
<defs>
<clipPath id="clip0_13_15">
<rect width="35.65" height="31" fill="white"/>
</clipPath>
</defs>
</svg>
